<svg width="1200" height="760" viewBox="0 0 1200 760" fill="none" xmlns="http://www.w3.org/2000/svg">
  <defs>
    <linearGradient id="bgGradient" x1="0" y1="0" x2="1" y2="1">
      <stop offset="0%" stop-color="#1D4ED8" />
      <stop offset="100%" stop-color="#9333EA" />
    </linearGradient>
    <linearGradient id="panelGradient" x1="0" y1="0" x2="1" y2="1">
      <stop offset="0%" stop-color="#ffffff" stop-opacity="0.9" />
      <stop offset="100%" stop-color="#f3f4f6" stop-opacity="0.7" />
    </linearGradient>
  </defs>
  <rect width="1200" height="760" rx="40" fill="url(#bgGradient)"/>
  <circle cx="920" cy="180" r="120" fill="rgba(255,255,255,0.18)" />
  <rect x="80" y="120" width="420" height="80" rx="24" fill="rgba(255,255,255,0.25)" />
  <rect x="80" y="220" width="520" height="460" rx="40" fill="url(#panelGradient)" />
  <rect x="520" y="280" width="480" height="300" rx="40" fill="rgba(255,255,255,0.1)" />
  <rect x="560" y="320" width="200" height="24" rx="12" fill="#fff" opacity="0.9" />
  <rect x="560" y="360" width="320" height="24" rx="12" fill="#fff" opacity="0.9" />
  <rect x="560" y="400" width="260" height="24" rx="12" fill="#fff" opacity="0.9" />
  <rect x="560" y="440" width="180" height="24" rx="12" fill="#fff" opacity="0.9" />
  <path d="M460 300H520L540 340H420L440 300H460Z" fill="#111827" opacity="0.8" />
  <path d="M510 370H425L410 440H525L510 370Z" fill="#2563EB" />
  <rect x="395" y="440" width="140" height="20" rx="10" fill="#1D4ED8" />
  <path d="M790 330H770V300C770 288.954 778.954 280 790 280H860C871.046 280 880 288.954 880 300V330H860V300H790V330Z" fill="#fff" />
  <path d="M820 360C835.464 360 848 347.464 848 332C848 316.536 835.464 304 820 304C804.536 304 792 316.536 792 332C792 347.464 804.536 360 820 360Z" fill="#fff" />
  <path d="M760 430C760 410 776 395 800 395H840C864 395 880 410 880 430V520H760V430Z" fill="#fff" opacity="0.9" />
  <path d="M820 430V520" stroke="#1D4ED8" stroke-width="24" stroke-linecap="round" />
  <path d="M760 520H880" stroke="#1D4ED8" stroke-width="24" stroke-linecap="round" />
  <text x="110" y="180" fill="#fff" font-size="52" font-weight="700" font-family="Inter, sans-serif">Shop Smarter</text>
  <text x="110" y="240" fill="#E0E7FF" font-size="28" font-weight="500" font-family="Inter, sans-serif">Reliable marketplace with AI-powered shopping</text>
</svg>
